<?xml version="1.0" encoding="UTF-8" standalone="no"?>
<!DOCTYPE svg PUBLIC "-//W3C//DTD SVG 1.1//EN" "http://www.w3.org/Graphics/SVG/1.1/DTD/svg11.dtd">
<svg width="100%" height="100%" viewBox="0 0 32 27" version="1.1" xmlns="http://www.w3.org/2000/svg" xmlns:xlink="http://www.w3.org/1999/xlink" xml:space="preserve" xmlns:serif="http://www.serif.com/" style="fill-rule:evenodd;clip-rule:evenodd;stroke-linejoin:round;stroke-miterlimit:2;">
    <path d="M32,13.366c0,0.732 -0.602,1.334 -1.333,1.334l-26.114,-0l9.724,9.723c0.25,0.25 0.391,0.589 0.391,0.943c-0,0.732 -0.602,1.334 -1.334,1.334c-0.354,-0 -0.693,-0.141 -0.943,-0.391l-12,-11.999c-0.25,-0.25 -0.391,-0.59 -0.391,-0.944c-0,-0.353 0.141,-0.693 0.391,-0.943l12,-12c0.25,-0.25 0.589,-0.39 0.943,-0.39c0.732,-0 1.334,0.602 1.334,1.334c-0,0.353 -0.141,0.693 -0.391,0.943l-9.724,9.723l26.114,0c0.731,0 1.333,0.602 1.333,1.333Z" style="fill-rule:nonzero;"/>
</svg>
