<?xml version="1.0" encoding="UTF-8" standalone="no"?>
<!DOCTYPE svg PUBLIC "-//W3C//DTD SVG 1.1//EN" "http://www.w3.org/Graphics/SVG/1.1/DTD/svg11.dtd">
<svg width="100%" height="100%" viewBox="0 0 32 21" version="1.1" xmlns="http://www.w3.org/2000/svg" xmlns:xlink="http://www.w3.org/1999/xlink" xml:space="preserve" xmlns:serif="http://www.serif.com/" style="fill-rule:evenodd;clip-rule:evenodd;stroke-linejoin:round;stroke-miterlimit:2;">
    <path d="M19.429,3.429c-0,-0.627 0.515,-1.143 1.142,-1.143l9.143,-0c0.627,-0 1.143,0.516 1.143,1.143c0,0.627 -0.516,1.142 -1.143,1.142l-9.143,0c-0.627,0 -1.142,-0.515 -1.142,-1.142Zm-3.429,11.142c-0,3.292 -2.708,6 -6,6l-8.857,0c-0.627,0 -1.143,-0.515 -1.143,-1.142l-0,-18.286c-0,-0.627 0.516,-1.143 1.143,-1.143l8.286,0c2.975,0.003 5.422,2.453 5.422,5.429c0,1.52 -0.638,2.972 -1.758,4c1.802,1.084 2.908,3.039 2.907,5.142Zm-13.714,-6l7.143,0c1.724,0 3.142,-1.418 3.142,-3.142c0,-1.725 -1.418,-3.143 -3.142,-3.143l-7.143,-0l-0,6.285Zm11.428,6c0,-2.037 -1.676,-3.714 -3.714,-3.714l-7.714,0l-0,7.429l7.714,-0c2.038,-0 3.714,-1.677 3.714,-3.715Zm18.286,-0.857c-0,0.627 -0.516,1.143 -1.143,1.143l-10.143,0c0.519,2.012 2.349,3.43 4.427,3.43c1.438,-0 2.795,-0.679 3.658,-1.83c0.215,-0.287 0.554,-0.457 0.914,-0.457c0.627,0 1.143,0.516 1.143,1.144c0,0.247 -0.08,0.488 -0.229,0.686c-1.294,1.724 -3.328,2.741 -5.484,2.741c-3.762,-0 -6.857,-3.095 -6.857,-6.857c-0,-3.762 3.095,-6.857 6.857,-6.857c3.762,-0 6.857,3.095 6.857,6.857c0,-0 -0,0 -0,0Zm-2.429,-1.143c-0.516,-2.016 -2.347,-3.437 -4.428,-3.437c-2.081,-0 -3.912,1.421 -4.429,3.437l8.857,0Z" style="fill-rule:nonzero;"/>
</svg>
