<svg class="arrow-loop-rgt" viewBox="0 0 32 27.1">
    <path fill="currentColor" d="m31.639 19.355-7.384 7.384a1.23 1.23 0 0 1-.871.361 1.237 1.237 0 0 1-1.232-1.231c0-.327.13-.64.361-.871l5.285-5.283H9.846C4.445 19.715 0 15.27 0 9.869S4.445.023 9.846.023h13.538c.675 0 1.231.556 1.231 1.231s-.556 1.231-1.231 1.231H9.846c-4.051 0-7.385 3.333-7.385 7.384s3.334 7.384 7.385 7.384h17.952l-5.285-5.282a1.23 1.23 0 0 1-.361-.871c0-.676.556-1.232 1.232-1.232.326 0 .64.13.871.361l7.384 7.384a1.233 1.233 0 0 1 0 1.742"/>
</svg>