<?xml version="1.0" encoding="UTF-8" standalone="no"?>
<!DOCTYPE svg PUBLIC "-//W3C//DTD SVG 1.1//EN" "http://www.w3.org/Graphics/SVG/1.1/DTD/svg11.dtd">
<svg width="100%" height="100%" viewBox="0 0 25 25" version="1.1" xmlns="http://www.w3.org/2000/svg" xmlns:xlink="http://www.w3.org/1999/xlink" xml:space="preserve" xmlns:serif="http://www.serif.com/" style="fill-rule:evenodd;clip-rule:evenodd;stroke-linecap:round;stroke-linejoin:round;">
    <g>
        <circle cx="12.5" cy="12.5" r="11.133" style="fill:#ff0;stroke:#000;stroke-width:2.15px;"/>
        <path d="M15.5,16.615c-0.33,0.145 -0.709,0.279 -1.137,0.402c-0.427,0.124 -0.889,0.186 -1.384,0.186c-0.835,0 -1.448,-0.18 -1.84,-0.541c-0.392,-0.361 -0.587,-0.866 -0.587,-1.516c-0,-0.154 0.01,-0.319 0.03,-0.494c0.021,-0.176 0.047,-0.341 0.078,-0.495l0.433,-2.382l-1.593,0l0.34,-1.979l3.959,-0l-0.773,4.392l-0.031,0.216c-0.01,0.072 -0.016,0.144 -0.016,0.217c0,0.144 0.036,0.26 0.109,0.348c0.072,0.087 0.211,0.131 0.417,0.131c0.186,-0 0.374,-0.028 0.565,-0.085c0.19,-0.057 0.384,-0.126 0.579,-0.209l0.31,0l0.541,1.809Zm-3.881,-9.448c-0,-0.402 0.134,-0.724 0.402,-0.967c0.268,-0.242 0.608,-0.363 1.02,-0.363c0.402,0 0.74,0.119 1.013,0.356c0.273,0.237 0.41,0.562 0.41,0.974c-0,0.423 -0.132,0.75 -0.394,0.982c-0.263,0.232 -0.606,0.348 -1.029,0.348c-0.422,-0 -0.765,-0.119 -1.028,-0.356c-0.263,-0.237 -0.394,-0.562 -0.394,-0.974Z" style="fill-rule:nonzero;"/>
    </g>
</svg>
